<?xml version="1.0" encoding="UTF-8"?>
<svg xmlns="http://www.w3.org/2000/svg" width="512" height="512" viewBox="0 0 512 512" role="img" aria-label="Pigeon logo">
  <defs>
    <linearGradient id="g1" x1="0" x2="1" y1="0" y2="1">
      <stop offset="0" stop-color="#2D9CDB"/>
      <stop offset="1" stop-color="#56CCF2"/>
    </linearGradient>
  </defs>
  <rect width="100%" height="100%" rx="48" fill="#0F1724" />
  <g transform="translate(-465,-175) scale(3)">
    <path d="M240 64c-44 0-80 36-80 80s36 80 80 80 80-36 80-80-36-80-80-80z" fill="url(#g1)" />
    <path d="M160 192c24-36 72-56 120-48 0 0-36 44-48 76-26 64-120 64-152 24 0 0 40-36 80-52z" fill="#0B1220" opacity="0.08"/>
    <path d="M200 84c-8 0-16 6-20 12-22 34 8 60 32 72 8 4 18 2 24-6 6-8 6-20 0-28-10-14-28-34-36-50-2-4-6-6-4-6z" fill="#FFFFFF"/>
    <path d="M244 108c0 6-6 10-10 8l-18-8 18-10c6-2 10 2 10 10z" fill="#FFD166"/>
    <g transform="translate(162,118) rotate(-20)">
      <path d="M0 0 L72 24 L0 48 L12 24 Z" fill="#FFFFFF" stroke="#E6EEF8" stroke-width="2"/>
      <path d="M12 24 L72 24" stroke="#2D9CDB" stroke-width="3" stroke-linecap="round"/>
    </g>
    <circle cx="216" cy="96" r="6" fill="#0B1220"/>
  </g>
</svg>
